<mxfile host="65bd71144e">
    <diagram id="xmV7NiDZU9eRZMmuNGhO" name="Page-1">
        <mxGraphModel dx="470" dy="-9" grid="1" gridSize="10" guides="1" tooltips="1" connect="1" arrows="1" fold="1" page="1" pageScale="1" pageWidth="1169" pageHeight="827" math="0" shadow="0">
            <root>
                <mxCell id="0"/>
                <mxCell id="1" parent="0"/>
                <mxCell id="2" value="todo" style="whiteSpace=wrap;html=1;align=center;" vertex="1" parent="1">
                    <mxGeometry x="370" y="1070" width="100" height="40" as="geometry"/>
                </mxCell>
                <mxCell id="3" value="" style="endArrow=none;html=1;rounded=0;entryX=0;entryY=0;entryDx=0;entryDy=0;exitX=0.656;exitY=1.011;exitDx=0;exitDy=0;exitPerimeter=0;" edge="1" parent="1" source="4" target="2">
                    <mxGeometry relative="1" as="geometry">
                        <mxPoint x="300" y="990" as="sourcePoint"/>
                        <mxPoint x="400" y="950" as="targetPoint"/>
                    </mxGeometry>
                </mxCell>
                <mxCell id="4" value="id" style="ellipse;whiteSpace=wrap;html=1;align=center;" vertex="1" parent="1">
                    <mxGeometry x="260" y="980" width="100" height="40" as="geometry"/>
                </mxCell>
                <mxCell id="5" value="" style="endArrow=none;html=1;rounded=0;entryX=0.5;entryY=0;entryDx=0;entryDy=0;exitX=0.432;exitY=1.082;exitDx=0;exitDy=0;exitPerimeter=0;" edge="1" parent="1" source="6" target="2">
                    <mxGeometry relative="1" as="geometry">
                        <mxPoint x="430" y="980" as="sourcePoint"/>
                        <mxPoint x="400" y="940" as="targetPoint"/>
                    </mxGeometry>
                </mxCell>
                <mxCell id="6" value="text" style="ellipse;whiteSpace=wrap;html=1;align=center;" vertex="1" parent="1">
                    <mxGeometry x="380" y="950" width="100" height="40" as="geometry"/>
                </mxCell>
            </root>
        </mxGraphModel>
    </diagram>
</mxfile>